{
  "accessors": [
    {
      "bufferView": 1,
      "componentType": 5126,
      "count": 64,
      "max": [
        0.90860998630523682,
        1,
        2.1561601161956787
      ],
      "min": [
        -1.0913900136947632,
        -1,
        0.15615999698638916
      ],
      "type": "VEC3"
    },
    {
      "bufferView": 1,
      "byteOffset": 768,
      "componentType": 5126,
      "count": 64,
      "max": [
        0.72788256406784058,
        0.72788256406784058,
        0.68571722507476807
      ],
      "min": [
        -0.72788256406784058,
        -0.72788256406784058,
        -0.68571722507476807
      ],
      "type": "VEC3"
    },
    {
      "bufferView": 0,
      "componentType": 5125,
      "count": 372,
      "max": [
        63
      ],
      "min": [
        0
      ],
      "type": "SCALAR"
    },
    {
      "bufferView": 1,
      "byteOffset": 1536,
      "componentType": 5126,
      "count": 64,
      "max": [
        0.809440016746521,
        0.85720998048782349,
        -0.21216000616550446
      ],
      "min": [
        -1.190559983253479,
        -1.1427899599075317,
        -2.2121601104736328
      ],
      "type": "VEC3"
    },
    {
      "bufferView": 1,
      "byteOffset": 2304,
      "componentType": 5126,
      "count": 64,
      "max": [
        0.72788256406784058,
        0.72788256406784058,
        0.68571722507476807
      ],
      "min": [
        -0.72788256406784058,
        -0.72788256406784058,
        -0.68571722507476807
      ],
      "type": "VEC3"
    },
    {
      "bufferView": 0,
      "byteOffset": 1488,
      "componentType": 5125,
      "count": 372,
      "max": [
        63
      ],
      "min": [
        0
      ],
      "type": "SCALAR"
    },
    {
      "bufferView": 1,
      "byteOffset": 3072,
      "componentType": 5126,
      "count": 64,
      "max": [
        0.52157002687454224,
        1.0710799694061279,
        -0.33129000663757324
      ],
      "min": [
        -1.4784300327301025,
        -0.92891997098922729,
        -2.3312900066375732
      ],
      "type": "VEC3"
    },
    {
      "bufferView": 1,
      "byteOffset": 3840,
      "componentType": 5126,
      "count": 64,
      "max": [
        0.72788256406784058,
        0.72788256406784058,
        0.68571722507476807
      ],
      "min": [
        -0.72788256406784058,
        -0.72788256406784058,
        -0.68571722507476807
      ],
      "type": "VEC3"
    },
    {
      "bufferView": 0,
      "byteOffset": 2976,
      "componentType": 5125,
      "count": 372,
      "max": [
        63
      ],
      "min": [
        0
      ],
      "type": "SCALAR"
    },
    {
      "bufferView": 1,
      "byteOffset": 4608,
      "componentType": 5126,
      "count": 64,
      "max": [
        0.89561998844146729,
        1.2469899654388428,
        -0.5185999870300293
      ],
      "min": [
        -1.1043800115585327,
        -0.75300997495651245,
        -2.5185999870300293
      ],
      "type": "VEC3"
    },
    {
      "bufferView": 1,
      "byteOffset": 5376,
      "componentType": 5126,
      "count": 64,
      "max": [
        0.72788256406784058,
        0.72788256406784058,
        0.68571722507476807
      ],
      "min": [
        -0.72788256406784058,
        -0.72788256406784058,
        -0.68571722507476807
      ],
      "type": "VEC3"
    },
    {
      "bufferView": 0,
      "byteOffset": 4464,
      "componentType": 5125,
      "count": 372,
      "max": [
        63
      ],
      "min": [
        0
      ],
      "type": "SCALAR"
    },
    {
      "bufferView": 1,
      "byteOffset": 6144,
      "componentType": 5126,
      "count": 482,
      "max": [
        0.97201001644134521,
        1,
        0.96754997968673706
      ],
      "min": [
        -1.0279899835586548,
        -1,
        -1.0324499607086182
      ],
      "type": "VEC3"
    },
    {
      "bufferView": 1,
      "byteOffset": 11928,
      "componentType": 5126,
      "count": 482,
      "max": [
        1,
        1,
        1
      ],
      "min": [
        -1,
        -1,
        -1
      ],
      "type": "VEC3"
    },
    {
      "bufferView": 0,
      "byteOffset": 5952,
      "componentType": 5125,
      "count": 2880,
      "max": [
        481
      ],
      "min": [
        0
      ],
      "type": "SCALAR"
    },
    {
      "bufferView": 1,
      "byteOffset": 17712,
      "componentType": 5126,
      "count": 482,
      "max": [
        0.96988999843597412,
        1.0054600238800049,
        5.0943398475646973
      ],
      "min": [
        -1.0301100015640259,
        -0.99453997611999512,
        3.0943400859832764
      ],
      "type": "VEC3"
    },
    {
      "bufferView": 1,
      "byteOffset": 23496,
      "componentType": 5126,
      "count": 482,
      "max": [
        1,
        1,
        1
      ],
      "min": [
        -1,
        -1,
        -1
      ],
      "type": "VEC3"
    },
    {
      "bufferView": 0,
      "byteOffset": 17472,
      "componentType": 5125,
      "count": 2880,
      "max": [
        481
      ],
      "min": [
        0
      ],
      "type": "SCALAR"
    },
    {
      "bufferView": 1,
      "byteOffset": 29280,
      "componentType": 5126,
      "count": 482,
      "max": [
        0.95674002170562744,
        3.9099500179290771,
        -1.8885300159454346
      ],
      "min": [
        -1.0432599782943726,
        1.9099500179290771,
        -3.8885300159454346
      ],
      "type": "VEC3"
    },
    {
      "bufferView": 1,
      "byteOffset": 35064,
      "componentType": 5126,
      "count": 482,
      "max": [
        1,
        1,
        1
      ],
      "min": [
        -1,
        -1,
        -1
      ],
      "type": "VEC3"
    },
    {
      "bufferView": 0,
      "byteOffset": 28992,
      "componentType": 5125,
      "count": 2880,
      "max": [
        481
      ],
      "min": [
        0
      ],
      "type": "SCALAR"
    },
    {
      "bufferView": 1,
      "byteOffset": 40848,
      "componentType": 5126,
      "count": 482,
      "max": [
        -1.2117999792098999,
        -0.89671999216079712,
        -1.9423700571060181
      ],
      "min": [
        -3.2118000984191895,
        -2.8967199325561523,
        -3.9423699378967285
      ],
      "type": "VEC3"
    },
    {
      "bufferView": 1,
      "byteOffset": 46632,
      "componentType": 5126,
      "count": 482,
      "max": [
        1,
        1,
        1
      ],
      "min": [
        -1,
        -1,
        -1
      ],
      "type": "VEC3"
    },
    {
      "bufferView": 0,
      "byteOffset": 40512,
      "componentType": 5125,
      "count": 2880,
      "max": [
        481
      ],
      "min": [
        0
      ],
      "type": "SCALAR"
    },
    {
      "bufferView": 1,
      "byteOffset": 52416,
      "componentType": 5126,
      "count": 482,
      "max": [
        3.6244499683380127,
        -0.13278999924659729,
        -1.8346899747848511
      ],
      "min": [
        1.6244499683380127,
        -2.1327900886535645,
        -3.8346900939941406
      ],
      "type": "VEC3"
    },
    {
      "bufferView": 1,
      "byteOffset": 58200,
      "componentType": 5126,
      "count": 482,
      "max": [
        1,
        1,
        1
      ],
      "min": [
        -1,
        -1,
        -1
      ],
      "type": "VEC3"
    },
    {
      "bufferView": 0,
      "byteOffset": 52032,
      "componentType": 5125,
      "count": 2880,
      "max": [
        481
      ],
      "min": [
        0
      ],
      "type": "SCALAR"
    }
  ],
  "asset": {
    "extras": {
      "author": "Surya (https://sketchfab.com/surya_e)",
      "license": "CC-BY-4.0 (http://creativecommons.org/licenses/by/4.0/)",
      "source": "https://sketchfab.com/3d-models/tetrahedral-93d97fcf91994ca58d1b5f69b61be311",
      "title": "Tetrahedral"
    },
    "generator": "Sketchfab-7.17.0",
    "version": "2.0"
  },
  "bufferViews": [
    {
      "buffer": 0,
      "byteLength": 63552,
      "byteOffset": 0,
      "name": "floatBufferViews",
      "target": 34963
    },
    {
      "buffer": 0,
      "byteLength": 63984,
      "byteOffset": 63552,
      "byteStride": 12,
      "name": "floatBufferViews",
      "target": 34962
    }
  ],
  "buffers": [
    {
      "byteLength": 127536,
      "uri": "scene.bin"
    }
  ],
  "extensionsRequired": [
    "KHR_materials_pbrSpecularGlossiness"
  ],
  "extensionsUsed": [
    "KHR_materials_pbrSpecularGlossiness"
  ],
  "materials": [
    {
      "doubleSided": true,
      "extensions": {
        "KHR_materials_pbrSpecularGlossiness": {
          "diffuseFactor": [
            1,
            0,
            0,
            1
          ],
          "glossinessFactor": 0.66901676829268286,
          "specularFactor": [
            0.21815952230455524,
            0.013924688612463744,
            0.013924688612463744
          ]
        }
      },
      "name": "Material.014"
    },
    {
      "doubleSided": true,
      "extensions": {
        "KHR_materials_pbrSpecularGlossiness": {
          "diffuseFactor": [
            1,
            1,
            1,
            1
          ],
          "glossinessFactor": 0,
          "specularFactor": [
            1,
            1,
            1
          ]
        }
      },
      "name": "Material.012"
    },
    {
      "doubleSided": true,
      "extensions": {
        "KHR_materials_pbrSpecularGlossiness": {
          "diffuseFactor": [
            1,
            1,
            1,
            1
          ],
          "glossinessFactor": 0,
          "specularFactor": [
            1,
            1,
            1
          ]
        }
      },
      "name": "Material.004"
    },
    {
      "doubleSided": true,
      "extensions": {
        "KHR_materials_pbrSpecularGlossiness": {
          "diffuseFactor": [
            1,
            1,
            1,
            1
          ],
          "glossinessFactor": 0,
          "specularFactor": [
            1,
            1,
            1
          ]
        }
      },
      "name": "Material.003"
    },
    {
      "doubleSided": true,
      "extensions": {
        "KHR_materials_pbrSpecularGlossiness": {
          "diffuseFactor": [
            1,
            1,
            1,
            1
          ],
          "glossinessFactor": 0,
          "specularFactor": [
            1,
            1,
            1
          ]
        }
      },
      "name": "Material.001"
    }
  ],
  "meshes": [
    {
      "name": "Cylinder_0",
      "primitives": [
        {
          "attributes": {
            "NORMAL": 1,
            "POSITION": 0
          },
          "indices": 2,
          "material": 4,
          "mode": 4
        }
      ]
    },
    {
      "name": "Cylinder.002_0",
      "primitives": [
        {
          "attributes": {
            "NORMAL": 4,
            "POSITION": 3
          },
          "indices": 5,
          "material": 3,
          "mode": 4
        }
      ]
    },
    {
      "name": "Cylinder.003_0",
      "primitives": [
        {
          "attributes": {
            "NORMAL": 7,
            "POSITION": 6
          },
          "indices": 8,
          "material": 2,
          "mode": 4
        }
      ]
    },
    {
      "name": "Cylinder.004_0",
      "primitives": [
        {
          "attributes": {
            "NORMAL": 10,
            "POSITION": 9
          },
          "indices": 11,
          "material": 1,
          "mode": 4
        }
      ]
    },
    {
      "name": "Sphere_0",
      "primitives": [
        {
          "attributes": {
            "NORMAL": 13,
            "POSITION": 12
          },
          "indices": 14,
          "material": 0,
          "mode": 4
        }
      ]
    },
    {
      "name": "Sphere.001_0",
      "primitives": [
        {
          "attributes": {
            "NORMAL": 16,
            "POSITION": 15
          },
          "indices": 17,
          "material": 0,
          "mode": 4
        }
      ]
    },
    {
      "name": "Sphere.002_0",
      "primitives": [
        {
          "attributes": {
            "NORMAL": 19,
            "POSITION": 18
          },
          "indices": 20,
          "material": 0,
          "mode": 4
        }
      ]
    },
    {
      "name": "Sphere.003_0",
      "primitives": [
        {
          "attributes": {
            "NORMAL": 22,
            "POSITION": 21
          },
          "indices": 23,
          "material": 0,
          "mode": 4
        }
      ]
    },
    {
      "name": "Sphere.004_0",
      "primitives": [
        {
          "attributes": {
            "NORMAL": 25,
            "POSITION": 24
          },
          "indices": 26,
          "material": 0,
          "mode": 4
        }
      ]
    }
  ],
  "nodes": [
    {
      "children": [
        1
      ],
      "name": "RootNode (gltf orientation matrix)",
      "rotation": [
        -0.70710678118654746,
        -0,
        -0,
        0.70710678118654757
      ]
    },
    {
      "children": [
        2
      ],
      "name": "RootNode (model correction matrix)"
    },
    {
      "children": [
        3,
        5,
        7,
        9,
        11,
        13,
        15,
        17,
        19,
        21
      ],
      "name": "Root"
    },
    {
      "children": [
        4
      ],
      "matrix": [
        -0.29086000000000006,
        0.95517000000000007,
        -0.05519000000000001,
        0,
        -0.77110000000000001,
        -0.19988000000000003,
        0.60452000000000006,
        0,
        0.56639000000000006,
        0.21839000000000003,
        0.7946700000000001,
        0,
        4.0762500000000008,
        1.00545,
        5.9038600000000008,
        1
      ],
      "name": "Lamp"
    },
    {
      "name": "Lamp"
    },
    {
      "children": [
        6
      ],
      "matrix": [
        0.20143000000000003,
        0,
        0,
        0,
        0,
        0.20143000000000003,
        0,
        0,
        0,
        0,
        1.0987199999999999,
        0,
        0,
        -0,
        0,
        1
      ],
      "name": "Cylinder"
    },
    {
      "mesh": 0,
      "name": "Cylinder_0"
    },
    {
      "children": [
        8
      ],
      "matrix": [
        0.10332000000000001,
        -0.094040000000000026,
        0.14511000000000002,
        0,
        0.10482000000000001,
        0.16850000000000004,
        0.03457000000000001,
        0,
        -0.75014000000000014,
        0.31517000000000006,
        0.73834000000000011,
        0,
        -0,
        0,
        0,
        1
      ],
      "name": "Cylinder.002"
    },
    {
      "mesh": 1,
      "name": "Cylinder.002_0"
    },
    {
      "children": [
        10
      ],
      "matrix": [
        -0.099890000000000034,
        -0.088840000000000016,
        0.15067,
        0,
        0.13317999999999999,
        -0.15112,
        -0.00081000000000000028,
        0,
        0.61854000000000009,
        0.54119000000000006,
        0.72919000000000012,
        0,
        -0,
        0,
        0,
        1
      ],
      "name": "Cylinder.003"
    },
    {
      "mesh": 2,
      "name": "Cylinder.003_0"
    },
    {
      "children": [
        12
      ],
      "matrix": [
        0.04055000000000001,
        -0.1381,
        -0.14092000000000002,
        0,
        0.19728000000000004,
        0.030730000000000004,
        0.026650000000000007,
        0,
        0.017580000000000005,
        -0.78209000000000006,
        0.77149999999999996,
        0,
        -0,
        -0,
        0,
        1
      ],
      "name": "Cylinder.004"
    },
    {
      "mesh": 3,
      "name": "Cylinder.004_0"
    },
    {
      "children": [
        14
      ],
      "matrix": [
        0.65760000000000018,
        0,
        0,
        0,
        0,
        0.65760000000000018,
        0,
        0,
        0,
        0,
        0.65760000000000018,
        0,
        0,
        0,
        -0,
        1
      ],
      "name": "Sphere"
    },
    {
      "mesh": 4,
      "name": "Sphere_0"
    },
    {
      "children": [
        16
      ],
      "matrix": [
        0.65760000000000018,
        0,
        0,
        0,
        0,
        0.65760000000000018,
        0,
        0,
        0,
        0,
        0.65760000000000018,
        0,
        -0,
        0,
        0,
        1
      ],
      "name": "Sphere.001"
    },
    {
      "mesh": 5,
      "name": "Sphere.001_0"
    },
    {
      "children": [
        18
      ],
      "matrix": [
        0.65760000000000018,
        0,
        0,
        0,
        0,
        0.65760000000000018,
        0,
        0,
        0,
        0,
        0.65760000000000018,
        0,
        0,
        0,
        0,
        1
      ],
      "name": "Sphere.002"
    },
    {
      "mesh": 6,
      "name": "Sphere.002_0"
    },
    {
      "children": [
        20
      ],
      "matrix": [
        0.65760000000000018,
        0,
        0,
        0,
        0,
        0.65760000000000018,
        0,
        0,
        0,
        0,
        0.65760000000000018,
        0,
        0,
        -0,
        0,
        1
      ],
      "name": "Sphere.003"
    },
    {
      "mesh": 7,
      "name": "Sphere.003_0"
    },
    {
      "children": [
        22
      ],
      "matrix": [
        0.65760000000000018,
        0,
        0,
        0,
        0,
        0.65760000000000018,
        0,
        0,
        0,
        0,
        0.65760000000000018,
        0,
        -0,
        0,
        0,
        1
      ],
      "name": "Sphere.004"
    },
    {
      "mesh": 8,
      "name": "Sphere.004_0"
    }
  ],
  "scene": 0,
  "scenes": [
    {
      "name": "OSG_Scene",
      "nodes": [
        0
      ]
    }
  ]
}

