{
  "accessors": [
    {
      "bufferView": 2,
      "componentType": 5126,
      "count": 447,
      "max": [
        0.072849616408348083,
        -0.040214806795120239,
        0.0020000040531158447
      ],
      "min": [
        -0.069616541266441345,
        -0.068674489855766296,
        -0.068000003695487976
      ],
      "type": "VEC3"
    },
    {
      "bufferView": 2,
      "byteOffset": 5364,
      "componentType": 5126,
      "count": 447,
      "max": [
        1,
        0.97394639253616333,
        0.99999749660491943
      ],
      "min": [
        -0.90693378448486328,
        -0.99999892711639404,
        -0.9999997615814209
      ],
      "type": "VEC3"
    },
    {
      "bufferView": 1,
      "componentType": 5126,
      "count": 447,
      "max": [
        0.87500005960464478,
        0.99107146263122559
      ],
      "min": [
        0.125,
        0
      ],
      "type": "VEC2"
    },
    {
      "bufferView": 0,
      "componentType": 5125,
      "count": 1680,
      "max": [
        446
      ],
      "min": [
        0
      ],
      "type": "SCALAR"
    },
    {
      "bufferView": 2,
      "byteOffset": 10728,
      "componentType": 5126,
      "count": 4,
      "max": [
        -0.032784447073936462,
        -0.044316902756690979,
        -0.0048148147761821747
      ],
      "min": [
        -0.032784447073936462,
        -0.047945737838745117,
        -0.061255514621734619
      ],
      "type": "VEC3"
    },
    {
      "bufferView": 2,
      "byteOffset": 10776,
      "componentType": 5126,
      "count": 4,
      "max": [
        1,
        0,
        -0
      ],
      "min": [
        1,
        0,
        -0
      ],
      "type": "VEC3"
    },
    {
      "bufferView": 1,
      "byteOffset": 3576,
      "componentType": 5126,
      "count": 4,
      "max": [
        1,
        1
      ],
      "min": [
        0,
        0
      ],
      "type": "VEC2"
    },
    {
      "bufferView": 0,
      "byteOffset": 6720,
      "componentType": 5125,
      "count": 6,
      "max": [
        3
      ],
      "min": [
        0
      ],
      "type": "SCALAR"
    },
    {
      "bufferView": 2,
      "byteOffset": 10824,
      "componentType": 5126,
      "count": 296,
      "max": [
        0.0050000101327896118,
        0.008500000461935997,
        0.0050000008195638657
      ],
      "min": [
        -0.004999995231628418,
        -0.0075000002980232239,
        -0.0050000008195638657
      ],
      "type": "VEC3"
    },
    {
      "bufferView": 2,
      "byteOffset": 14376,
      "componentType": 5126,
      "count": 296,
      "max": [
        1,
        0.78237205743789673,
        1
      ],
      "min": [
        -1,
        0,
        -1
      ],
      "type": "VEC3"
    },
    {
      "bufferView": 1,
      "byteOffset": 3608,
      "componentType": 5126,
      "count": 296,
      "max": [
        1,
        0.99000000953674316
      ],
      "min": [
        0,
        0
      ],
      "type": "VEC2"
    },
    {
      "bufferView": 0,
      "byteOffset": 6744,
      "componentType": 5125,
      "count": 1434,
      "max": [
        295
      ],
      "min": [
        0
      ],
      "type": "SCALAR"
    },
    {
      "bufferView": 2,
      "byteOffset": 17928,
      "componentType": 5126,
      "count": 475,
      "max": [
        0.018500000238418579,
        0.004412852693349123,
        0.018500000238418579
      ],
      "min": [
        -0.018500000238418579,
        -0.0035871474537998438,
        -0.018500000238418579
      ],
      "type": "VEC3"
    },
    {
      "bufferView": 2,
      "byteOffset": 23628,
      "componentType": 5126,
      "count": 475,
      "max": [
        0.97516906261444092,
        1,
        0.9952317476272583
      ],
      "min": [
        -0.9923972487449646,
        -0.20792801678180695,
        -0.99663227796554565
      ],
      "type": "VEC3"
    },
    {
      "bufferView": 1,
      "byteOffset": 5976,
      "componentType": 5126,
      "count": 475,
      "max": [
        0.87211114168167114,
        0.92332935333251953
      ],
      "min": [
        0.12788885831832886,
        0.23582941293716431
      ],
      "type": "VEC2"
    },
    {
      "bufferView": 0,
      "byteOffset": 12480,
      "componentType": 5125,
      "count": 1869,
      "max": [
        474
      ],
      "min": [
        0
      ],
      "type": "SCALAR"
    },
    {
      "bufferView": 2,
      "byteOffset": 29328,
      "componentType": 5126,
      "count": 144,
      "max": [
        0.074255876243114471,
        0.014355683699250221,
        0.031447116285562515
      ],
      "min": [
        -0.018444105982780457,
        0.014355654828250408,
        -0.024980239570140839
      ],
      "type": "VEC3"
    },
    {
      "bufferView": 2,
      "byteOffset": 31056,
      "componentType": 5126,
      "count": 144,
      "max": [
        9.3523176758480986e-08,
        1,
        2.2998381155048264e-07
      ],
      "min": [
        -6.6317625169176608e-08,
        1,
        -9.9677208709181286e-08
      ],
      "type": "VEC3"
    },
    {
      "bufferView": 1,
      "byteOffset": 9776,
      "componentType": 5126,
      "count": 144,
      "max": [
        1.0106788873672485,
        0.98594486713409424
      ],
      "min": [
        0.0010256171226501465,
        -0.029395818710327148
      ],
      "type": "VEC2"
    },
    {
      "bufferView": 0,
      "byteOffset": 19956,
      "componentType": 5125,
      "count": 414,
      "max": [
        143
      ],
      "min": [
        0
      ],
      "type": "SCALAR"
    },
    {
      "bufferView": 2,
      "byteOffset": 32784,
      "componentType": 5126,
      "count": 60,
      "max": [
        0.010000000707805157,
        0.010000000707805157,
        0.031455203890800476
      ],
      "min": [
        -0.017204079777002335,
        0.0080000031739473343,
        -0.025041472166776657
      ],
      "type": "VEC3"
    },
    {
      "bufferView": 2,
      "byteOffset": 33504,
      "componentType": 5126,
      "count": 60,
      "max": [
        1,
        1,
        0.9999997615814209
      ],
      "min": [
        -0.99997419118881226,
        -1,
        -0.9999992847442627
      ],
      "type": "VEC3"
    },
    {
      "bufferView": 1,
      "byteOffset": 10928,
      "componentType": 5126,
      "count": 60,
      "max": [
        0.875,
        0.96678453683853149
      ],
      "min": [
        0.125,
        0
      ],
      "type": "VEC2"
    },
    {
      "bufferView": 0,
      "byteOffset": 21612,
      "componentType": 5125,
      "count": 108,
      "max": [
        59
      ],
      "min": [
        0
      ],
      "type": "SCALAR"
    },
    {
      "bufferView": 2,
      "byteOffset": 34224,
      "componentType": 5126,
      "count": 26,
      "max": [
        0.0050000003539025784,
        0.0050000003539025784,
        0.031443499028682709
      ],
      "min": [
        -0.022035954520106316,
        0.0038711619563400745,
        -0.024993585422635078
      ],
      "type": "VEC3"
    },
    {
      "bufferView": 2,
      "byteOffset": 34536,
      "componentType": 5126,
      "count": 26,
      "max": [
        1,
        1,
        1
      ],
      "min": [
        -1,
        0,
        -1
      ],
      "type": "VEC3"
    },
    {
      "bufferView": 1,
      "byteOffset": 11408,
      "componentType": 5126,
      "count": 26,
      "max": [
        0.87500005960464478,
        0.50000059604644775
      ],
      "min": [
        0.125,
        0.25
      ],
      "type": "VEC2"
    },
    {
      "bufferView": 0,
      "byteOffset": 22044,
      "componentType": 5125,
      "count": 54,
      "max": [
        25
      ],
      "min": [
        0
      ],
      "type": "SCALAR"
    },
    {
      "bufferView": 2,
      "byteOffset": 34848,
      "componentType": 5126,
      "count": 4,
      "max": [
        0.013500000350177288,
        0,
        0.013500000350177288
      ],
      "min": [
        -0.013500000350177288,
        0,
        -0.042942274361848831
      ],
      "type": "VEC3"
    },
    {
      "bufferView": 2,
      "byteOffset": 34896,
      "componentType": 5126,
      "count": 4,
      "max": [
        0,
        1,
        -0
      ],
      "min": [
        0,
        1,
        -0
      ],
      "type": "VEC3"
    },
    {
      "bufferView": 1,
      "byteOffset": 11616,
      "componentType": 5126,
      "count": 4,
      "max": [
        1,
        1
      ],
      "min": [
        0,
        0
      ],
      "type": "VEC2"
    },
    {
      "bufferView": 0,
      "byteOffset": 22260,
      "componentType": 5125,
      "count": 6,
      "max": [
        3
      ],
      "min": [
        0
      ],
      "type": "SCALAR"
    },
    {
      "bufferView": 2,
      "byteOffset": 34944,
      "componentType": 5126,
      "count": 296,
      "max": [
        0.0050000101327896118,
        0.008500000461935997,
        0.0050000008195638657
      ],
      "min": [
        -0.004999995231628418,
        -0.0075000002980232239,
        -0.0050000008195638657
      ],
      "type": "VEC3"
    },
    {
      "bufferView": 2,
      "byteOffset": 38496,
      "componentType": 5126,
      "count": 296,
      "max": [
        1,
        0.78237205743789673,
        1
      ],
      "min": [
        -1,
        0,
        -1
      ],
      "type": "VEC3"
    },
    {
      "bufferView": 1,
      "byteOffset": 11648,
      "componentType": 5126,
      "count": 296,
      "max": [
        1,
        0.99000000953674316
      ],
      "min": [
        0,
        0
      ],
      "type": "VEC2"
    },
    {
      "bufferView": 0,
      "byteOffset": 22284,
      "componentType": 5125,
      "count": 1434,
      "max": [
        295
      ],
      "min": [
        0
      ],
      "type": "SCALAR"
    },
    {
      "bufferView": 2,
      "byteOffset": 42048,
      "componentType": 5126,
      "count": 296,
      "max": [
        0.0050000101327896118,
        0.008500000461935997,
        0.0050000008195638657
      ],
      "min": [
        -0.004999995231628418,
        -0.0075000002980232239,
        -0.0050000008195638657
      ],
      "type": "VEC3"
    },
    {
      "bufferView": 2,
      "byteOffset": 45600,
      "componentType": 5126,
      "count": 296,
      "max": [
        1,
        0.78237205743789673,
        1
      ],
      "min": [
        -1,
        0,
        -1
      ],
      "type": "VEC3"
    },
    {
      "bufferView": 1,
      "byteOffset": 14016,
      "componentType": 5126,
      "count": 296,
      "max": [
        1,
        0.99000000953674316
      ],
      "min": [
        0,
        0
      ],
      "type": "VEC2"
    },
    {
      "bufferView": 0,
      "byteOffset": 28020,
      "componentType": 5125,
      "count": 1434,
      "max": [
        295
      ],
      "min": [
        0
      ],
      "type": "SCALAR"
    }
  ],
  "asset": {
    "extras": {
      "author": "Evolver3721 (https://sketchfab.com/evolver3721)",
      "license": "CC-BY-SA-4.0 (http://creativecommons.org/licenses/by-sa/4.0/)",
      "source": "https://sketchfab.com/3d-models/digital-multimeter-5bb862c4f5ae48e4894e37e8b3a7a874",
      "title": "Digital Multimeter"
    },
    "generator": "Sketchfab-8.55.0",
    "version": "2.0"
  },
  "bufferViews": [
    {
      "buffer": 0,
      "byteLength": 33756,
      "byteOffset": 0,
      "name": "floatBufferViews",
      "target": 34963
    },
    {
      "buffer": 0,
      "byteLength": 16384,
      "byteOffset": 33756,
      "byteStride": 8,
      "name": "floatBufferViews",
      "target": 34962
    },
    {
      "buffer": 0,
      "byteLength": 49152,
      "byteOffset": 50140,
      "byteStride": 12,
      "name": "floatBufferViews",
      "target": 34962
    }
  ],
  "buffers": [
    {
      "byteLength": 99292,
      "uri": "scene.bin"
    }
  ],
  "images": [
    {
      "uri": "textures/Cursor_baseColor.png"
    },
    {
      "uri": "textures/Material_baseColor.png"
    }
  ],
  "materials": [
    {
      "doubleSided": true,
      "emissiveFactor": [
        0,
        0,
        0
      ],
      "name": "Body",
      "pbrMetallicRoughness": {
        "baseColorFactor": [
          0.0087126200000000008,
          0.17769699999999999,
          0.14901300000000001,
          1
        ],
        "metallicFactor": 0,
        "roughnessFactor": 0.5
      }
    },
    {
      "doubleSided": true,
      "emissiveFactor": [
        0,
        0,
        0
      ],
      "name": "shadow",
      "pbrMetallicRoughness": {
        "baseColorFactor": [
          0,
          0,
          0,
          1
        ],
        "metallicFactor": 0,
        "roughnessFactor": 0.5
      }
    },
    {
      "doubleSided": true,
      "emissiveFactor": [
        0,
        0,
        0
      ],
      "name": "svorka1",
      "pbrMetallicRoughness": {
        "baseColorFactor": [
          0,
          0.14700199999999999,
          0.58668799999999999,
          1
        ],
        "metallicFactor": 0,
        "roughnessFactor": 0.69999999999999996
      }
    },
    {
      "doubleSided": true,
      "emissiveFactor": [
        0,
        0,
        0
      ],
      "name": "Cursor",
      "pbrMetallicRoughness": {
        "baseColorFactor": [
          1,
          1,
          1,
          1
        ],
        "baseColorTexture": {
          "index": 0,
          "texCoord": 0
        },
        "metallicFactor": 0.35763891127713926,
        "roughnessFactor": 0.5
      }
    },
    {
      "doubleSided": true,
      "emissiveFactor": [
        0,
        0,
        0
      ],
      "name": "Material",
      "pbrMetallicRoughness": {
        "baseColorFactor": [
          1,
          1,
          1,
          1
        ],
        "baseColorTexture": {
          "index": 1,
          "texCoord": 0
        },
        "metallicFactor": 0,
        "roughnessFactor": 0.87815100000000001
      }
    },
    {
      "alphaMode": "BLEND",
      "doubleSided": true,
      "name": "Facade_Glass",
      "pbrMetallicRoughness": {
        "baseColorFactor": [
          1,
          1,
          1,
          0.03855590674247892
        ],
        "metallicFactor": 1,
        "roughnessFactor": 1
      }
    },
    {
      "doubleSided": true,
      "emissiveFactor": [
        0,
        0,
        0
      ],
      "name": "Material.002",
      "pbrMetallicRoughness": {
        "baseColorFactor": [
          0.082716899999999996,
          0.082716899999999996,
          0.082716899999999996,
          1
        ],
        "metallicFactor": 0,
        "roughnessFactor": 0.5
      }
    },
    {
      "doubleSided": true,
      "emissiveFactor": [
        0,
        0,
        0
      ],
      "name": "Material.003",
      "pbrMetallicRoughness": {
        "baseColorFactor": [
          0.060884800000000003,
          0.15239,
          0.064821299999999998,
          1
        ],
        "metallicFactor": 0,
        "roughnessFactor": 0.5
      }
    },
    {
      "doubleSided": true,
      "emissiveFactor": [
        0,
        0,
        0
      ],
      "name": "svorka2",
      "pbrMetallicRoughness": {
        "baseColorFactor": [
          0.58668799999999999,
          0.0037012999999999998,
          0,
          1
        ],
        "metallicFactor": 0,
        "roughnessFactor": 0.69999999999999996
      }
    },
    {
      "doubleSided": true,
      "emissiveFactor": [
        0,
        0,
        0
      ],
      "name": "svorka3",
      "pbrMetallicRoughness": {
        "baseColorFactor": [
          0,
          0,
          0,
          1
        ],
        "metallicFactor": 0,
        "roughnessFactor": 0.69999999999999996
      }
    }
  ],
  "meshes": [
    {
      "primitives": [
        {
          "attributes": {
            "NORMAL": 1,
            "POSITION": 0,
            "TEXCOORD_0": 2
          },
          "indices": 3,
          "material": 0,
          "mode": 4
        }
      ]
    },
    {
      "primitives": [
        {
          "attributes": {
            "NORMAL": 5,
            "POSITION": 4,
            "TEXCOORD_0": 6
          },
          "indices": 7,
          "material": 1,
          "mode": 4
        }
      ]
    },
    {
      "primitives": [
        {
          "attributes": {
            "NORMAL": 9,
            "POSITION": 8,
            "TEXCOORD_0": 10
          },
          "indices": 11,
          "material": 2,
          "mode": 4
        }
      ]
    },
    {
      "primitives": [
        {
          "attributes": {
            "NORMAL": 13,
            "POSITION": 12,
            "TEXCOORD_0": 14
          },
          "indices": 15,
          "material": 3,
          "mode": 4
        }
      ]
    },
    {
      "primitives": [
        {
          "attributes": {
            "NORMAL": 17,
            "POSITION": 16,
            "TEXCOORD_0": 18
          },
          "indices": 19,
          "material": 4,
          "mode": 4
        }
      ]
    },
    {
      "primitives": [
        {
          "attributes": {
            "NORMAL": 21,
            "POSITION": 20,
            "TEXCOORD_0": 22
          },
          "indices": 23,
          "material": 5,
          "mode": 4
        }
      ]
    },
    {
      "primitives": [
        {
          "attributes": {
            "NORMAL": 25,
            "POSITION": 24,
            "TEXCOORD_0": 26
          },
          "indices": 27,
          "material": 6,
          "mode": 4
        }
      ]
    },
    {
      "primitives": [
        {
          "attributes": {
            "NORMAL": 29,
            "POSITION": 28,
            "TEXCOORD_0": 30
          },
          "indices": 31,
          "material": 7,
          "mode": 4
        }
      ]
    },
    {
      "primitives": [
        {
          "attributes": {
            "NORMAL": 33,
            "POSITION": 32,
            "TEXCOORD_0": 34
          },
          "indices": 35,
          "material": 8,
          "mode": 4
        }
      ]
    },
    {
      "primitives": [
        {
          "attributes": {
            "NORMAL": 37,
            "POSITION": 36,
            "TEXCOORD_0": 38
          },
          "indices": 39,
          "material": 9,
          "mode": 4
        }
      ]
    }
  ],
  "nodes": [
    {
      "children": [
        1
      ],
      "name": "RootNode (gltf orientation matrix)",
      "rotation": [
        -0.70710678118654746,
        -0,
        -0,
        0.70710678118654757
      ]
    },
    {
      "children": [
        2
      ],
      "matrix": [
        -3.8857805861880479e-16,
        -0.17885959148406982,
        -0.9838746190071106,
        0,
        0.92657238245010376,
        0.37005147337913513,
        -0.067272044718265533,
        0,
        0.37611651420593262,
        -0.91163104772567749,
        0.16572634875774384,
        0,
        -0.0084827924147248268,
        -0.028556030243635178,
        -0.041611306369304657,
        1
      ],
      "name": "RootNode (model correction matrix)"
    },
    {
      "children": [
        3
      ],
      "name": "root"
    },
    {
      "children": [
        4,
        7,
        9,
        11,
        13,
        15,
        17,
        19,
        21
      ],
      "matrix": [
        1,
        0,
        0,
        0,
        0,
        2.2204460492503131e-16,
        1,
        0,
        0,
        -1,
        2.2204460492503131e-16,
        0,
        0,
        0,
        0,
        1
      ],
      "name": "GLTF_SceneRootNode"
    },
    {
      "children": [
        5,
        6
      ],
      "name": "Body_0"
    },
    {
      "mesh": 0,
      "name": ""
    },
    {
      "mesh": 1,
      "name": ""
    },
    {
      "children": [
        8
      ],
      "matrix": [
        1,
        0,
        0,
        0,
        0,
        1,
        0,
        0,
        0,
        0,
        1,
        0,
        0.036011599004268646,
        -0.051073011010885239,
        -0.051935967057943344,
        1
      ],
      "name": "Pinout_1"
    },
    {
      "mesh": 2,
      "name": ""
    },
    {
      "children": [
        10
      ],
      "matrix": [
        0.99550427435649214,
        0.0088054134752872,
        0.094306438971489853,
        0,
        -0.0085930522971536111,
        0.99995954725826097,
        -0.0026576868273062173,
        0,
        -0.09432602604887208,
        0.0018353584344439459,
        0.99553966885767275,
        0,
        0.0040186885744333267,
        -0.046729754656553268,
        -0.033000007271766663,
        1
      ],
      "name": "Cursor_2"
    },
    {
      "mesh": 3,
      "name": ""
    },
    {
      "children": [
        12
      ],
      "matrix": [
        1,
        0,
        0,
        0,
        0,
        1,
        0,
        0,
        0,
        0,
        1,
        0,
        -0.014340341091156006,
        -0.058672580868005753,
        -0.03626193106174469,
        1
      ],
      "name": "Front Panel_3"
    },
    {
      "mesh": 4,
      "name": ""
    },
    {
      "children": [
        14
      ],
      "matrix": [
        1,
        0,
        0,
        0,
        0,
        1,
        0,
        0,
        0,
        0,
        1,
        0,
        -0.042784448713064194,
        -0.05431690439581871,
        -0.03626193106174469,
        1
      ],
      "name": "Glass_4"
    },
    {
      "mesh": 5,
      "name": ""
    },
    {
      "children": [
        16
      ],
      "matrix": [
        1,
        0,
        0,
        0,
        0,
        1,
        0,
        0,
        0,
        0,
        1,
        0,
        -0.037784446030855179,
        -0.051816899329423904,
        -0.03626193106174469,
        1
      ],
      "name": "Shield_5"
    },
    {
      "mesh": 6,
      "name": ""
    },
    {
      "children": [
        18
      ],
      "matrix": [
        1,
        0,
        0,
        0,
        0,
        1,
        0,
        0,
        0,
        0,
        1,
        0,
        -0.046284448355436325,
        -0.047945737838745117,
        -0.018299898132681847,
        1
      ],
      "name": "LCD_6"
    },
    {
      "mesh": 7,
      "name": ""
    },
    {
      "children": [
        20
      ],
      "matrix": [
        1,
        0,
        0,
        0,
        0,
        1,
        0,
        0,
        0,
        0,
        1,
        0,
        0.036011599004268646,
        -0.051073011010885239,
        -0.033032029867172241,
        1
      ],
      "name": "Pinout.001_7"
    },
    {
      "mesh": 8,
      "name": ""
    },
    {
      "children": [
        22
      ],
      "matrix": [
        1,
        0,
        0,
        0,
        0,
        1,
        0,
        0,
        0,
        0,
        1,
        0,
        0.036011599004268646,
        -0.051073011010885239,
        -0.014032032340764999,
        1
      ],
      "name": "Pinout.002_8"
    },
    {
      "mesh": 9,
      "name": ""
    }
  ],
  "samplers": [
    {
      "magFilter": 9729,
      "minFilter": 9987,
      "wrapS": 10497,
      "wrapT": 10497
    }
  ],
  "scene": 0,
  "scenes": [
    {
      "name": "OSG_Scene",
      "nodes": [
        0
      ]
    }
  ],
  "textures": [
    {
      "sampler": 0,
      "source": 0
    },
    {
      "sampler": 0,
      "source": 1
    }
  ]
}

