{
  "accessors": [
    {
      "bufferView": 2,
      "componentType": 5126,
      "count": 6396,
      "max": [
        0.3595118522644043,
        0.75889056921005249,
        0.68674838542938232
      ],
      "min": [
        -0.20750322937965393,
        -0.028848627582192421,
        -0.62809073925018311
      ],
      "type": "VEC3"
    },
    {
      "bufferView": 2,
      "byteOffset": 76752,
      "componentType": 5126,
      "count": 6396,
      "max": [
        1,
        1,
        1
      ],
      "min": [
        -1,
        -1,
        -1
      ],
      "type": "VEC3"
    },
    {
      "bufferView": 3,
      "componentType": 5126,
      "count": 6396,
      "max": [
        1,
        1,
        0.98573160171508789,
        1
      ],
      "min": [
        -1,
        -1,
        -0.98588532209396362,
        -1
      ],
      "type": "VEC4"
    },
    {
      "bufferView": 1,
      "componentType": 5126,
      "count": 6396,
      "max": [
        0.81241387128829956,
        1.2070313692092896
      ],
      "min": [
        -1.0234376192092896,
        0
      ],
      "type": "VEC2"
    },
    {
      "bufferView": 0,
      "componentType": 5125,
      "count": 28848,
      "max": [
        6395
      ],
      "min": [
        0
      ],
      "type": "SCALAR"
    },
    {
      "bufferView": 2,
      "byteOffset": 153504,
      "componentType": 5126,
      "count": 928,
      "max": [
        0.32225385308265686,
        0.67514365911483765,
        0.77130627632141113
      ],
      "min": [
        -0.18818803131580353,
        0.010268192738294601,
        0.68726134300231934
      ],
      "type": "VEC3"
    },
    {
      "bufferView": 2,
      "byteOffset": 164640,
      "componentType": 5126,
      "count": 928,
      "max": [
        0.9987296462059021,
        0.99999606609344482,
        1
      ],
      "min": [
        -0.9987296462059021,
        -0.9974358081817627,
        -0.99970436096191406
      ],
      "type": "VEC3"
    },
    {
      "bufferView": 3,
      "byteOffset": 102336,
      "componentType": 5126,
      "count": 928,
      "max": [
        1,
        0.73789030313491821,
        0.86374706029891968,
        1
      ],
      "min": [
        -0.50515258312225342,
        -0.73050051927566528,
        -0.86206322908401489,
        -1
      ],
      "type": "VEC4"
    },
    {
      "bufferView": 1,
      "byteOffset": 51168,
      "componentType": 5126,
      "count": 928,
      "max": [
        0.53899234533309937,
        0.88128769397735596
      ],
      "min": [
        0.048579547554254532,
        0.097653836011886597
      ],
      "type": "VEC2"
    },
    {
      "bufferView": 0,
      "byteOffset": 115392,
      "componentType": 5125,
      "count": 4008,
      "max": [
        927
      ],
      "min": [
        0
      ],
      "type": "SCALAR"
    },
    {
      "bufferView": 2,
      "byteOffset": 175776,
      "componentType": 5126,
      "count": 320,
      "max": [
        0.081180378794670105,
        0.65007847547531128,
        0.75895607471466064
      ],
      "min": [
        -0.16302485764026642,
        0.40530627965927124,
        0.7161405086517334
      ],
      "type": "VEC3"
    },
    {
      "bufferView": 2,
      "byteOffset": 179616,
      "componentType": 5126,
      "count": 320,
      "max": [
        0.85937368869781494,
        0.87323004007339478,
        0.99580448865890503
      ],
      "min": [
        -0.85937368869781494,
        -0.87323004007339478,
        -0.99580448865890503
      ],
      "type": "VEC3"
    },
    {
      "bufferView": 3,
      "byteOffset": 117184,
      "componentType": 5126,
      "count": 320,
      "max": [
        1,
        0.20554232597351074,
        0.86114501953125,
        1
      ],
      "min": [
        0.50830316543579102,
        -0.21127881109714508,
        -0.86113154888153076,
        -1
      ],
      "type": "VEC4"
    },
    {
      "bufferView": 1,
      "byteOffset": 58592,
      "componentType": 5126,
      "count": 320,
      "max": [
        0.50912857055664062,
        0.85997688770294189
      ],
      "min": [
        0.078443154692649841,
        0.54499566555023193
      ],
      "type": "VEC2"
    },
    {
      "bufferView": 0,
      "byteOffset": 131424,
      "componentType": 5125,
      "count": 1512,
      "max": [
        319
      ],
      "min": [
        0
      ],
      "type": "SCALAR"
    },
    {
      "bufferView": 2,
      "byteOffset": 183456,
      "componentType": 5126,
      "count": 9385,
      "max": [
        0.32876679301261902,
        0.65179109573364258,
        0.74533587694168091
      ],
      "min": [
        -0.19139830768108368,
        0.0037551703862845898,
        0.67615306377410889
      ],
      "type": "VEC3"
    },
    {
      "bufferView": 2,
      "byteOffset": 296076,
      "componentType": 5126,
      "count": 9385,
      "max": [
        1,
        1,
        1
      ],
      "min": [
        -1,
        -1,
        -1
      ],
      "type": "VEC3"
    },
    {
      "bufferView": 3,
      "byteOffset": 122304,
      "componentType": 5126,
      "count": 9385,
      "max": [
        1,
        1,
        0.72788095474243164,
        1
      ],
      "min": [
        -1,
        -1,
        -0.72788101434707642,
        -1
      ],
      "type": "VEC4"
    },
    {
      "bufferView": 1,
      "byteOffset": 61152,
      "componentType": 5126,
      "count": 9385,
      "max": [
        1,
        1
      ],
      "min": [
        0,
        0.01000000536441803
      ],
      "type": "VEC2"
    },
    {
      "bufferView": 0,
      "byteOffset": 137472,
      "componentType": 5125,
      "count": 19068,
      "max": [
        9384
      ],
      "min": [
        0
      ],
      "type": "SCALAR"
    },
    {
      "bufferView": 2,
      "byteOffset": 408696,
      "componentType": 5126,
      "count": 4864,
      "max": [
        0.25890970230102539,
        0.6653437614440918,
        0.7570030689239502
      ],
      "min": [
        -0.1418253481388092,
        0.039053730666637421,
        0.6747555136680603
      ],
      "type": "VEC3"
    },
    {
      "bufferView": 2,
      "byteOffset": 467064,
      "componentType": 5126,
      "count": 4864,
      "max": [
        0.9994615912437439,
        0.9994615912437439,
        1
      ],
      "min": [
        -0.9994615912437439,
        -0.9994615912437439,
        -1
      ],
      "type": "VEC3"
    },
    {
      "bufferView": 3,
      "byteOffset": 272464,
      "componentType": 5126,
      "count": 4864,
      "max": [
        1,
        0.92247658967971802,
        0.49380099773406982,
        1
      ],
      "min": [
        -0.86491841077804565,
        -0.93372482061386108,
        -0.4938005805015564,
        -1
      ],
      "type": "VEC4"
    },
    {
      "bufferView": 1,
      "byteOffset": 136232,
      "componentType": 5126,
      "count": 4864,
      "max": [
        0.99000000953674316,
        1.8511351346969604
      ],
      "min": [
        0.10029885917901993,
        0.01000000536441803
      ],
      "type": "VEC2"
    },
    {
      "bufferView": 0,
      "byteOffset": 213744,
      "componentType": 5125,
      "count": 8400,
      "max": [
        4863
      ],
      "min": [
        0
      ],
      "type": "SCALAR"
    },
    {
      "bufferView": 2,
      "byteOffset": 525432,
      "componentType": 5126,
      "count": 16060,
      "max": [
        0.1122431680560112,
        0.68708860874176025,
        0.81052637100219727
      ],
      "min": [
        -0.19408759474754333,
        0.36713618040084839,
        0.67050015926361084
      ],
      "type": "VEC3"
    },
    {
      "bufferView": 2,
      "byteOffset": 718152,
      "componentType": 5126,
      "count": 16060,
      "max": [
        1,
        1,
        1
      ],
      "min": [
        -1,
        -1,
        -1
      ],
      "type": "VEC3"
    },
    {
      "bufferView": 3,
      "byteOffset": 350288,
      "componentType": 5126,
      "count": 16060,
      "max": [
        1,
        0.99999737739562988,
        1,
        1
      ],
      "min": [
        -1,
        -0.99999797344207764,
        -1,
        -1
      ],
      "type": "VEC4"
    },
    {
      "bufferView": 1,
      "byteOffset": 175144,
      "componentType": 5126,
      "count": 16060,
      "max": [
        1,
        1
      ],
      "min": [
        0,
        0
      ],
      "type": "VEC2"
    },
    {
      "bufferView": 0,
      "byteOffset": 247344,
      "componentType": 5125,
      "count": 80439,
      "max": [
        16059
      ],
      "min": [
        0
      ],
      "type": "SCALAR"
    }
  ],
  "asset": {
    "extras": {
      "author": "hughzey3 (https://sketchfab.com/hughzey3)",
      "license": "CC-BY-4.0 (http://creativecommons.org/licenses/by/4.0/)",
      "source": "https://sketchfab.com/3d-models/oscillscope310a-7c653d3fb2a941deafa2f556fb95487f",
      "title": "Oscillscope310a"
    },
    "generator": "Sketchfab-6.90.0",
    "version": "2.0"
  },
  "bufferViews": [
    {
      "buffer": 0,
      "byteLength": 569100,
      "byteOffset": 0,
      "name": "floatBufferViews",
      "target": 34963
    },
    {
      "buffer": 0,
      "byteLength": 303624,
      "byteOffset": 569100,
      "byteStride": 8,
      "name": "floatBufferViews",
      "target": 34962
    },
    {
      "buffer": 0,
      "byteLength": 910872,
      "byteOffset": 872724,
      "byteStride": 12,
      "name": "floatBufferViews",
      "target": 34962
    },
    {
      "buffer": 0,
      "byteLength": 607248,
      "byteOffset": 1783596,
      "byteStride": 16,
      "name": "floatBufferViews",
      "target": 34962
    }
  ],
  "buffers": [
    {
      "byteLength": 2390844,
      "uri": "scene.bin"
    }
  ],
  "images": [
    {
      "uri": "textures/basedecal_baseColor.jpeg"
    },
    {
      "uri": "textures/basedecal_metallicRoughness.png"
    }
  ],
  "materials": [
    {
      "doubleSided": true,
      "emissiveFactor": [
        0,
        0,
        0
      ],
      "name": "basedecal",
      "pbrMetallicRoughness": {
        "baseColorFactor": [
          0.9326415151919959,
          0.9326415151919959,
          0.9326415151919959,
          1
        ],
        "baseColorTexture": {
          "index": 0,
          "texCoord": 0
        },
        "metallicFactor": 1,
        "metallicRoughnessTexture": {
          "index": 1,
          "texCoord": 0
        },
        "roughnessFactor": 0.64333333909136692
      }
    },
    {
      "doubleSided": true,
      "emissiveFactor": [
        0,
        0,
        0
      ],
      "name": "gold",
      "pbrMetallicRoughness": {
        "baseColorFactor": [
          1,
          0.58346799999999999,
          0.019946200000000001,
          1
        ],
        "metallicFactor": 1,
        "roughnessFactor": 0.103093
      }
    },
    {
      "doubleSided": true,
      "emissiveFactor": [
        0.088040900000000005,
        0.16054499999999999,
        0.15098500000000001
      ],
      "name": "disk",
      "pbrMetallicRoughness": {
        "baseColorFactor": [
          0.078641000000000003,
          0.80000000000000004,
          0.0909055,
          1
        ],
        "metallicFactor": 1,
        "roughnessFactor": 0.33311499999999999
      }
    },
    {
      "doubleSided": true,
      "emissiveFactor": [
        0,
        0,
        0
      ],
      "name": "black",
      "pbrMetallicRoughness": {
        "baseColorFactor": [
          0,
          0,
          0,
          1
        ],
        "metallicFactor": 0.48453600000000002,
        "roughnessFactor": 0.85567000000000004
      }
    },
    {
      "doubleSided": true,
      "emissiveFactor": [
        0,
        0,
        0
      ],
      "name": "material",
      "pbrMetallicRoughness": {
        "baseColorFactor": [
          0.17335700000000001,
          0.00093441200000000002,
          0,
          1
        ],
        "metallicFactor": 0.556701,
        "roughnessFactor": 0.75257700000000005
      }
    },
    {
      "doubleSided": true,
      "emissiveFactor": [
        0,
        0,
        0
      ],
      "name": "base",
      "pbrMetallicRoughness": {
        "baseColorFactor": [
          0.020595857279956033,
          0.016792696659366169,
          0.016792696659366169,
          1
        ],
        "metallicFactor": 1,
        "roughnessFactor": 0.365979
      }
    }
  ],
  "meshes": [
    {
      "primitives": [
        {
          "attributes": {
            "NORMAL": 1,
            "POSITION": 0,
            "TANGENT": 2,
            "TEXCOORD_0": 3
          },
          "indices": 4,
          "material": 0,
          "mode": 4
        }
      ]
    },
    {
      "primitives": [
        {
          "attributes": {
            "NORMAL": 6,
            "POSITION": 5,
            "TANGENT": 7,
            "TEXCOORD_0": 8
          },
          "indices": 9,
          "material": 1,
          "mode": 4
        }
      ]
    },
    {
      "primitives": [
        {
          "attributes": {
            "NORMAL": 11,
            "POSITION": 10,
            "TANGENT": 12,
            "TEXCOORD_0": 13
          },
          "indices": 14,
          "material": 2,
          "mode": 4
        }
      ]
    },
    {
      "primitives": [
        {
          "attributes": {
            "NORMAL": 16,
            "POSITION": 15,
            "TANGENT": 17,
            "TEXCOORD_0": 18
          },
          "indices": 19,
          "material": 3,
          "mode": 4
        }
      ]
    },
    {
      "primitives": [
        {
          "attributes": {
            "NORMAL": 21,
            "POSITION": 20,
            "TANGENT": 22,
            "TEXCOORD_0": 23
          },
          "indices": 24,
          "material": 4,
          "mode": 4
        }
      ]
    },
    {
      "primitives": [
        {
          "attributes": {
            "NORMAL": 26,
            "POSITION": 25,
            "TANGENT": 27,
            "TEXCOORD_0": 28
          },
          "indices": 29,
          "material": 5,
          "mode": 4
        }
      ]
    }
  ],
  "nodes": [
    {
      "children": [
        1
      ],
      "name": "RootNode (gltf orientation matrix)",
      "rotation": [
        -0.70710678118654746,
        -0,
        -0,
        0.70710678118654757
      ]
    },
    {
      "children": [
        2
      ],
      "name": "RootNode (model correction matrix)"
    },
    {
      "children": [
        3
      ],
      "name": "root"
    },
    {
      "children": [
        4
      ],
      "matrix": [
        1,
        0,
        0,
        0,
        0,
        2.2204460492503131e-16,
        1,
        0,
        0,
        -1,
        2.2204460492503131e-16,
        0,
        0,
        0,
        0,
        1
      ],
      "name": "GLTF_SceneRootNode"
    },
    {
      "children": [
        5,
        6,
        7,
        8,
        9,
        10
      ],
      "matrix": [
        0.26622027158737183,
        0,
        0,
        0,
        0,
        0.26622027158737183,
        0,
        0,
        0,
        0,
        0.26622027158737183,
        0,
        0,
        0,
        0,
        1
      ],
      "name": "scope_0"
    },
    {
      "mesh": 0,
      "name": ""
    },
    {
      "mesh": 1,
      "name": ""
    },
    {
      "mesh": 2,
      "name": ""
    },
    {
      "mesh": 3,
      "name": ""
    },
    {
      "mesh": 4,
      "name": ""
    },
    {
      "mesh": 5,
      "name": ""
    }
  ],
  "samplers": [
    {
      "magFilter": 9729,
      "minFilter": 9987,
      "wrapS": 33071,
      "wrapT": 33071
    },
    {
      "magFilter": 9729,
      "minFilter": 9987,
      "wrapS": 10497,
      "wrapT": 10497
    }
  ],
  "scene": 0,
  "scenes": [
    {
      "name": "OSG_Scene",
      "nodes": [
        0
      ]
    }
  ],
  "textures": [
    {
      "sampler": 0,
      "source": 0
    },
    {
      "sampler": 1,
      "source": 1
    }
  ]
}

