{
  "accessors": [
    {
      "bufferView": 2,
      "componentType": 5126,
      "count": 290,
      "max": [
        1.1648011207580566,
        1.0374994277954102,
        1.1648012399673462
      ],
      "min": [
        -1.1648013591766357,
        -1.0329077243804932,
        -1.1648015975952148
      ],
      "type": "VEC3"
    },
    {
      "bufferView": 2,
      "byteOffset": 3480,
      "componentType": 5126,
      "count": 290,
      "max": [
        1,
        1,
        1
      ],
      "min": [
        -1,
        -1,
        -1
      ],
      "type": "VEC3"
    },
    {
      "bufferView": 1,
      "componentType": 5126,
      "count": 290,
      "max": [
        0.98550510406494141,
        0.4089570939540863
      ],
      "min": [
        0.598003089427948,
        0.011514544486999512
      ],
      "type": "VEC2"
    },
    {
      "bufferView": 0,
      "componentType": 5125,
      "count": 960,
      "max": [
        289
      ],
      "min": [
        0
      ],
      "type": "SCALAR"
    },
    {
      "bufferView": 2,
      "byteOffset": 6960,
      "componentType": 5126,
      "count": 90,
      "max": [
        0.92336148023605347,
        1,
        0.92336159944534302
      ],
      "min": [
        -0.92336171865463257,
        -0.4712032675743103,
        -0.92336195707321167
      ],
      "type": "VEC3"
    },
    {
      "bufferView": 2,
      "byteOffset": 8040,
      "componentType": 5126,
      "count": 90,
      "max": [
        0.9925873875617981,
        1,
        0.99258744716644287
      ],
      "min": [
        -0.9925873875617981,
        -1,
        -0.9925873875617981
      ],
      "type": "VEC3"
    },
    {
      "bufferView": 1,
      "byteOffset": 2320,
      "componentType": 5126,
      "count": 90,
      "max": [
        0.83100563287734985,
        0.98989570140838623
      ],
      "min": [
        0.01930546760559082,
        0.42179295420646667
      ],
      "type": "VEC2"
    },
    {
      "bufferView": 0,
      "byteOffset": 3840,
      "componentType": 5125,
      "count": 240,
      "max": [
        89
      ],
      "min": [
        0
      ],
      "type": "SCALAR"
    },
    {
      "bufferView": 2,
      "byteOffset": 9120,
      "componentType": 5126,
      "count": 177,
      "max": [
        1,
        -0.35648030042648315,
        1.0000001192092896
      ],
      "min": [
        -1.0000002384185791,
        -1.0329077243804932,
        -1.0000004768371582
      ],
      "type": "VEC3"
    },
    {
      "bufferView": 2,
      "byteOffset": 11244,
      "componentType": 5126,
      "count": 177,
      "max": [
        1,
        1,
        1
      ],
      "min": [
        -1,
        -1,
        -1
      ],
      "type": "VEC3"
    },
    {
      "bufferView": 1,
      "byteOffset": 3040,
      "componentType": 5126,
      "count": 177,
      "max": [
        0.56311970949172974,
        0.59947264194488525
      ],
      "min": [
        0.0278281569480896,
        0.017844974994659424
      ],
      "type": "VEC2"
    },
    {
      "bufferView": 0,
      "byteOffset": 4800,
      "componentType": 5125,
      "count": 594,
      "max": [
        176
      ],
      "min": [
        0
      ],
      "type": "SCALAR"
    }
  ],
  "asset": {
    "extras": {
      "author": "Jackmcm (https://sketchfab.com/Jackmcm)",
      "license": "CC-BY-4.0 (http://creativecommons.org/licenses/by/4.0/)",
      "source": "https://sketchfab.com/3d-models/green-glowing-test-tube-a4ef21580119414ebd2337267573e4ca",
      "title": "Green Glowing Test Tube"
    },
    "generator": "Sketchfab-9.48.0",
    "version": "2.0"
  },
  "bufferViews": [
    {
      "buffer": 0,
      "byteLength": 7176,
      "byteOffset": 0,
      "name": "floatBufferViews",
      "target": 34963
    },
    {
      "buffer": 0,
      "byteLength": 4456,
      "byteOffset": 7176,
      "byteStride": 8,
      "name": "floatBufferViews",
      "target": 34962
    },
    {
      "buffer": 0,
      "byteLength": 13368,
      "byteOffset": 11632,
      "byteStride": 12,
      "name": "floatBufferViews",
      "target": 34962
    }
  ],
  "buffers": [
    {
      "byteLength": 25000,
      "uri": "scene.bin"
    }
  ],
  "extensionsRequired": [
    "KHR_materials_pbrSpecularGlossiness"
  ],
  "extensionsUsed": [
    "KHR_materials_pbrSpecularGlossiness"
  ],
  "images": [
    {
      "uri": "textures/blinn1_diffuse.jpeg"
    }
  ],
  "materials": [
    {
      "alphaMode": "BLEND",
      "doubleSided": true,
      "emissiveFactor": [
        0,
        0,
        0
      ],
      "extensions": {
        "KHR_materials_pbrSpecularGlossiness": {
          "diffuseFactor": [
            0,
            0,
            0,
            0.48951981707317072
          ],
          "glossinessFactor": 1,
          "specularFactor": [
            1,
            1,
            1
          ]
        }
      },
      "name": "blinn2"
    },
    {
      "doubleSided": true,
      "emissiveFactor": [
        0,
        0,
        0
      ],
      "extensions": {
        "KHR_materials_pbrSpecularGlossiness": {
          "diffuseFactor": [
            1,
            1,
            1,
            1
          ],
          "diffuseTexture": {
            "index": 0,
            "texCoord": 0
          },
          "glossinessFactor": 0.079251618375051722,
          "specularFactor": [
            0,
            0,
            0
          ]
        }
      },
      "name": "blinn1"
    },
    {
      "doubleSided": true,
      "emissiveFactor": [
        0,
        0.68591953498835645,
        0.0065956236889738997
      ],
      "extensions": {
        "KHR_materials_pbrSpecularGlossiness": {
          "diffuseFactor": [
            0.14099999999999996,
            1,
            0.17404299999999989,
            1
          ],
          "glossinessFactor": 0.09709144847806235,
          "specularFactor": [
            0,
            0,
            0
          ]
        }
      },
      "name": "blinn3"
    }
  ],
  "meshes": [
    {
      "name": "pCylinder8_blinn2_0",
      "primitives": [
        {
          "attributes": {
            "NORMAL": 1,
            "POSITION": 0,
            "TEXCOORD_0": 2
          },
          "indices": 3,
          "material": 0,
          "mode": 4
        }
      ]
    },
    {
      "name": "pCylinder9_blinn1_0",
      "primitives": [
        {
          "attributes": {
            "NORMAL": 5,
            "POSITION": 4,
            "TEXCOORD_0": 6
          },
          "indices": 7,
          "material": 1,
          "mode": 4
        }
      ]
    },
    {
      "name": "pCylinder10_blinn3_0",
      "primitives": [
        {
          "attributes": {
            "NORMAL": 9,
            "POSITION": 8,
            "TEXCOORD_0": 10
          },
          "indices": 11,
          "material": 2,
          "mode": 4
        }
      ]
    }
  ],
  "nodes": [
    {
      "children": [
        1
      ],
      "name": "RootNode (gltf orientation matrix)",
      "rotation": [
        -0.70710678118654746,
        -0,
        -0,
        0.70710678118654757
      ]
    },
    {
      "children": [
        2
      ],
      "name": "RootNode (model correction matrix)"
    },
    {
      "children": [
        3
      ],
      "matrix": [
        1,
        0,
        0,
        0,
        0,
        0,
        1,
        0,
        0,
        -1,
        0,
        0,
        0,
        0,
        0,
        1
      ],
      "name": "557a9954cebe44b19155eca7d627736a.fbx"
    },
    {
      "children": [
        4,
        6,
        8
      ],
      "name": "RootNode"
    },
    {
      "children": [
        5
      ],
      "matrix": [
        0.99854425276955383,
        -0.0032900660644877219,
        0.053838190220184039,
        0,
        0.081383626668768708,
        4.2700164744450344,
        -1.2484913795833215,
        0,
        -0.050742864576572046,
        0.28116519960021136,
        0.95831690594935082,
        0,
        0,
        5.4941272735595703,
        -3.820204496383667,
        1
      ],
      "name": "pCylinder8"
    },
    {
      "mesh": 0,
      "name": "pCylinder8_blinn2_0"
    },
    {
      "children": [
        7
      ],
      "matrix": [
        0.98912013284835931,
        -0.0032590148846783273,
        0.05333007296892768,
        0,
        0.018117729671730205,
        0.95059666599397152,
        -0.27794078782995019,
        0,
        -0.050263960572479886,
        0.27851160207426323,
        0.94927244605773797,
        0,
        0.096363723278045654,
        9.5355281829833984,
        -4.997307300567627,
        1
      ],
      "name": "pCylinder9"
    },
    {
      "mesh": 1,
      "name": "pCylinder9_blinn1_0"
    },
    {
      "children": [
        9
      ],
      "matrix": [
        0.88523126457492074,
        -0.0029167153430841902,
        0.047728730177807703,
        0,
        0.082430017099194258,
        4.3249182349036088,
        -1.2645438644078413,
        0,
        -0.044984656466336266,
        0.24925908341690281,
        0.84956884400880839,
        0,
        0,
        5.7595152854919434,
        -3.8761990070343018,
        1
      ],
      "name": "pCylinder10"
    },
    {
      "mesh": 2,
      "name": "pCylinder10_blinn3_0"
    }
  ],
  "samplers": [
    {
      "magFilter": 9729,
      "minFilter": 9987,
      "wrapS": 10497,
      "wrapT": 10497
    }
  ],
  "scene": 0,
  "scenes": [
    {
      "name": "OSG_Scene",
      "nodes": [
        0
      ]
    }
  ],
  "textures": [
    {
      "sampler": 0,
      "source": 0
    }
  ]
}

